<?xml version="1.0" standalone="no"?>
<!DOCTYPE svg PUBLIC "-//W3C//DTD SVG 20010904//EN"
 "http://www.w3.org/TR/2001/REC-SVG-20010904/DTD/svg10.dtd">
<svg version="1.0" xmlns="http://www.w3.org/2000/svg"
 width="1000.000000pt" height="1000.000000pt" viewBox="0 0 1000.000000 1000.000000"
 preserveAspectRatio="xMidYMid meet">
<metadata>
Created by potrace 1.16, written by Peter Selinger 2001-2019
</metadata>
<g transform="translate(0.000000,1000.000000) scale(0.100000,-0.100000)"
fill="#000000" stroke="none">
<path d="M4705 8984 c-22 -2 -103 -9 -180 -15 -857 -67 -1697 -355 -2355 -807
-831 -572 -1343 -1365 -1435 -2222 -117 -1091 446 -2139 1529 -2845 164 -107
384 -228 554 -304 l142 -64 67 -116 c295 -509 650 -961 977 -1245 426 -369
947 -474 1461 -294 101 35 275 123 373 189 213 142 479 418 727 754 104 141
337 490 420 629 l58 97 81 37 c328 149 647 344 926 566 154 123 426 393 544
541 530 662 747 1433 620 2205 -158 968 -871 1845 -1929 2373 -551 275 -1119
435 -1780 503 -140 14 -707 27 -800 18z m-950 -4774 c11 -5 15 -9 8 -9 -26 -2
-123 -105 -150 -159 -23 -48 -27 -70 -28 -142 0 -73 4 -93 28 -142 15 -31 46
-75 68 -97 l41 -41 -80 0 c-158 0 -335 47 -512 135 -159 80 -209 122 -225 186
-10 40 44 95 131 135 145 67 298 107 504 129 138 15 188 16 215 5z m2656 -29
c-17 -22 -43 -66 -58 -98 -23 -49 -27 -72 -27 -148 0 -80 3 -98 30 -155 17
-36 46 -82 65 -102 l35 -37 -46 -6 c-59 -8 -187 21 -365 82 -255 88 -435 197
-435 263 0 36 18 54 89 89 172 87 437 147 654 150 l89 1 -31 -39z"/>
</g>
</svg>
